<svg width="44" height="41" viewBox="0 0 44 41" fill="none" xmlns="http://www.w3.org/2000/svg">
<ellipse cx="21.9539" cy="20.7045" rx="21.0626" ry="20.0829" fill="#FF6B00"/>
<path d="M21.9538 26.7207C19.8109 26.7207 18.0618 24.9716 18.0618 22.8287C18.0618 22.4533 18.3732 22.1419 18.7487 22.1419C19.1241 22.1419 19.4355 22.4533 19.4355 22.8287C19.4355 24.2207 20.5619 25.3471 21.9538 25.3471C23.3458 25.3471 24.4722 24.2207 24.4722 22.8287C24.4722 22.4533 24.7835 22.1419 25.159 22.1419C25.5345 22.1419 25.8458 22.4533 25.8458 22.8287C25.8458 24.9716 24.0967 26.7207 21.9538 26.7207Z" fill="#F9F9F9"/>
<path d="M15.7175 15.6217C15.5435 15.6217 15.3603 15.5485 15.2321 15.4203C14.9666 15.1547 14.9666 14.7151 15.2321 14.4496L18.5564 11.1253C18.8219 10.8598 19.2615 10.8598 19.5271 11.1253C19.7926 11.3909 19.7926 11.8305 19.5271 12.096L16.2028 15.4203C16.0655 15.5485 15.8915 15.6217 15.7175 15.6217Z" fill="#F9F9F9"/>
<path d="M28.1902 15.6217C28.0162 15.6217 27.8422 15.5576 27.7049 15.4203L24.3806 12.096C24.1151 11.8305 24.1151 11.3909 24.3806 11.1253C24.6462 10.8598 25.0858 10.8598 25.3513 11.1253L28.6756 14.4496C28.9411 14.7151 28.9411 15.1547 28.6756 15.4203C28.5474 15.5485 28.3642 15.6217 28.1902 15.6217Z" fill="#F9F9F9"/>
<path d="M29.4723 19.4862C29.4082 19.4862 29.3441 19.4862 29.28 19.4862H29.0693H14.6277C13.9867 19.4954 13.2541 19.4954 12.7229 18.9642C12.3017 18.5521 12.1094 17.9111 12.1094 16.9679C12.1094 14.4495 13.9501 14.4495 14.8292 14.4495H29.0785C29.9576 14.4495 31.7983 14.4495 31.7983 16.9679C31.7983 17.9203 31.606 18.5521 31.1848 18.9642C30.7086 19.4404 30.0675 19.4862 29.4723 19.4862ZM14.8292 18.1126H29.2891C29.7012 18.1217 30.0858 18.1217 30.214 17.9935C30.2781 17.9294 30.4155 17.7096 30.4155 16.9679C30.4155 15.9331 30.1591 15.8232 29.0693 15.8232H14.8292C13.7394 15.8232 13.483 15.9331 13.483 16.9679C13.483 17.7096 13.6295 17.9294 13.6845 17.9935C13.8127 18.1126 14.2065 18.1126 14.6094 18.1126H14.8292Z" fill="#F9F9F9"/>
<path d="M24.6004 30.6128H19.0784C15.7999 30.6128 15.0673 28.6622 14.7834 26.968L13.4922 19.0467C13.4281 18.6712 13.6845 18.3232 14.06 18.2591C14.4263 18.195 14.7834 18.4514 14.8475 18.8269L16.1387 26.7391C16.4043 28.36 16.9538 29.2391 19.0784 29.2391H24.6004C26.9539 29.2391 27.2195 28.4149 27.5217 26.8215L29.0602 18.8086C29.1334 18.4331 29.4906 18.1858 29.8661 18.2683C30.2415 18.3415 30.4796 18.6987 30.4064 19.0741L28.8679 27.0871C28.5107 28.9461 27.9155 30.6128 24.6004 30.6128Z" fill="#F9F9F9"/>
</svg>
